<svg width="21" height="21" viewBox="0 0 21 21" fill="none" xmlns="http://www.w3.org/2000/svg">
<path d="M19.867 0.846387C19.3668 0.333002 18.6265 0.141741 17.9362 0.343069L1.83964 5.02393C1.11134 5.22626 0.595128 5.80709 0.456071 6.54496C0.314013 7.29591 0.810216 8.24919 1.45848 8.64782L6.49154 11.7412C7.00775 12.0583 7.67403 11.9788 8.1012 11.5479L13.8646 5.74871C14.1547 5.44672 14.6349 5.44672 14.925 5.74871C15.2151 6.04063 15.2151 6.51375 14.925 6.81574L9.15163 12.616C8.72346 13.0458 8.64342 13.7152 8.95855 14.2347L12.0338 19.3182C12.394 19.9221 13.0142 20.2644 13.6945 20.2644C13.7745 20.2644 13.8646 20.2644 13.9446 20.2543C14.7249 20.1537 15.3452 19.6202 15.5753 18.8652L20.3472 2.7892C20.5573 2.10468 20.3672 1.35977 19.867 0.846387Z" fill="white"/>
</svg>
